<svg xmlns="http://www.w3.org/2000/svg" width="180" height="34" viewBox="0 0 180 34" fill="none"><path d="M12.06 33.45C10.11 33.45 8.34 32.97 6.75 32.01C5.16 31.02 3.9 29.685 2.97 28.005C2.07 26.325 1.62 24.435 1.62 22.335C1.62 20.235 2.07 18.345 2.97 16.665C3.9 14.985 5.145 13.65 6.705 12.66C8.295 11.67 10.08 11.175 12.06 11.175C13.68 11.175 15.12 11.52 16.38 12.21C17.67 12.87 18.705 13.8 19.485 15C20.265 16.17 20.7 17.535 20.79 19.095V25.53C20.7 27.06 20.265 28.425 19.485 29.625C18.735 30.825 17.715 31.77 16.425 32.46C15.165 33.12 13.71 33.45 12.06 33.45ZM12.735 29.625C14.745 29.625 16.365 28.95 17.595 27.6C18.825 26.22 19.44 24.465 19.44 22.335C19.44 20.865 19.155 19.59 18.585 18.51C18.045 17.4 17.265 16.545 16.245 15.945C15.225 15.315 14.04 15 12.69 15C11.34 15 10.14 15.315 9.09 15.945C8.07 16.575 7.26 17.445 6.66 18.555C6.09 19.635 5.805 20.88 5.805 22.29C5.805 23.73 6.09 25.005 6.66 26.115C7.26 27.195 8.085 28.05 9.135 28.68C10.185 29.31 11.385 29.625 12.735 29.625ZM19.17 33V27.24L19.935 22.02L19.17 16.845V11.625H23.265V33H19.17Z" fill="url(#paint0_linear_501_2)"></path><path d="M36.8564 33.45C34.8764 33.45 33.1064 32.97 31.5464 32.01C29.9864 31.02 28.7414 29.685 27.8114 28.005C26.9114 26.325 26.4614 24.435 26.4614 22.335C26.4614 20.235 26.9114 18.345 27.8114 16.665C28.7414 14.985 29.9864 13.65 31.5464 12.66C33.1064 11.67 34.8764 11.175 36.8564 11.175C38.4464 11.175 39.8864 11.52 41.1764 12.21C42.4664 12.87 43.5014 13.8 44.2814 15C45.0914 16.17 45.5414 17.535 45.6314 19.095V25.53C45.5414 27.06 45.1064 28.425 44.3264 29.625C43.5464 30.825 42.5114 31.77 41.2214 32.46C39.9314 33.12 38.4764 33.45 36.8564 33.45ZM37.5314 29.625C38.8814 29.625 40.0514 29.31 41.0414 28.68C42.0614 28.05 42.8564 27.195 43.4264 26.115C43.9964 25.005 44.2814 23.745 44.2814 22.335C44.2814 20.865 43.9814 19.59 43.3814 18.51C42.8114 17.43 42.0164 16.575 40.9964 15.945C40.0064 15.315 38.8364 15 37.4864 15C36.1364 15 34.9514 15.315 33.9314 15.945C32.9114 16.575 32.1014 17.445 31.5014 18.555C30.9314 19.635 30.6464 20.88 30.6464 22.29C30.6464 23.73 30.9314 25.005 31.5014 26.115C32.1014 27.195 32.9114 28.05 33.9314 28.68C34.9814 29.31 36.1814 29.625 37.5314 29.625ZM48.1064 33H44.0114V27.24L44.7764 22.02L44.0114 16.845V0.869998H48.1064V33ZM59.9878 33L50.1778 11.625H54.6778L62.5528 29.67H59.9428L67.8628 11.625H72.1828L62.3728 33H59.9878ZM83.3512 33.45C81.2212 33.45 79.3012 32.97 77.5912 32.01C75.8812 31.02 74.5312 29.685 73.5412 28.005C72.5512 26.325 72.0562 24.42 72.0562 22.29C72.0562 20.19 72.5362 18.3 73.4962 16.62C74.4862 14.94 75.8062 13.62 77.4562 12.66C79.1362 11.67 81.0112 11.175 83.0812 11.175C85.0612 11.175 86.8012 11.625 88.3012 12.525C89.8312 13.425 91.0162 14.67 91.8562 16.26C92.7262 17.85 93.1612 19.65 93.1612 21.66C93.1612 21.96 93.1462 22.29 93.1162 22.65C93.0862 22.98 93.0262 23.37 92.9362 23.82H74.8912V20.445H90.7762L89.2912 21.75C89.2912 20.31 89.0362 19.095 88.5262 18.105C88.0162 17.085 87.2962 16.305 86.3662 15.765C85.4362 15.195 84.3112 14.91 82.9912 14.91C81.6112 14.91 80.3962 15.21 79.3462 15.81C78.2962 16.41 77.4862 17.25 76.9162 18.33C76.3462 19.41 76.0612 20.685 76.0612 22.155C76.0612 23.655 76.3612 24.975 76.9612 26.115C77.5612 27.225 78.4162 28.095 79.5262 28.725C80.6362 29.325 81.9112 29.625 83.3512 29.625C84.5512 29.625 85.6462 29.415 86.6362 28.995C87.6562 28.575 88.5262 27.945 89.2462 27.105L91.8562 29.76C90.8362 30.96 89.5762 31.875 88.0762 32.505C86.6062 33.135 85.0312 33.45 83.3512 33.45ZM111.347 33V20.535C111.347 18.915 110.837 17.58 109.817 16.53C108.797 15.48 107.477 14.955 105.857 14.955C104.777 14.955 103.817 15.195 102.977 15.675C102.137 16.155 101.477 16.815 100.997 17.655C100.517 18.495 100.277 19.455 100.277 20.535L98.6122 19.59C98.6122 17.97 98.9722 16.53 99.6922 15.27C100.412 14.01 101.417 13.02 102.707 12.3C103.997 11.55 105.452 11.175 107.072 11.175C108.692 11.175 110.117 11.58 111.347 12.39C112.607 13.2 113.597 14.265 114.317 15.585C115.037 16.875 115.397 18.255 115.397 19.725V33H111.347ZM96.2272 33V11.625H100.277V33H96.2272ZM122.552 33V2.67H126.602V33H122.552ZM117.287 15.315V11.625H131.867V15.315H117.287ZM132.159 30.795L144.849 13.83H149.619L136.929 30.795H132.159ZM132.159 33V30.795L135.759 29.31H149.349V33H132.159ZM132.924 15.315V11.625H149.619V13.83L145.884 15.315H132.924Z" fill="#060815"></path><circle cx="166.4" cy="27.88" r="5.12" fill="#F5B023" fill-opacity="0.3"></circle><circle cx="174.08" cy="27.88" r="5.12" fill="#F2543F"></circle><defs><linearGradient id="paint0_linear_501_2" x1="19.2" y1="24.04" x2="18.56" y2="24.04" gradientUnits="userSpaceOnUse"><stop offset="0.156458" stop-color="#F2543F"></stop><stop offset="0.20804" stop-color="#060815"></stop></linearGradient></defs></svg>