<svg xmlns="http://www.w3.org/2000/svg" width="105" height="102" viewBox="0 0 105 102" fill="none"><path d="M88.6239 64.6394C74.0403 82.9186 56.7517 87.8453 49.9304 88.0237C34.1016 88.234 23.0659 66.3021 19.5266 55.3099C16.5637 45.5745 14.4586 24.633 29.7412 18.7507C48.8445 11.3978 73.2086 18.8202 89.4804 32.545C102.498 43.5249 94.3333 58.5162 88.6239 64.6394Z" fill="#FFF8EB"></path><path d="M27.4996 57.6364C30.8887 57.6364 33.636 54.889 33.636 51.5C33.636 48.111 30.8887 45.3636 27.4996 45.3636C24.1106 45.3636 21.3633 48.111 21.3633 51.5C21.3633 54.889 24.1106 57.6364 27.4996 57.6364Z" stroke="#F4AC19" stroke-width="2" stroke-linecap="round" stroke-linejoin="round"></path><path d="M42.6364 57.6364C42.3641 58.2533 42.2829 58.9377 42.4032 59.6012C42.5235 60.2647 42.8398 60.877 43.3114 61.3591L43.4341 61.4818C43.8145 61.8618 44.1162 62.3129 44.3221 62.8096C44.5279 63.3062 44.6339 63.8385 44.6339 64.3761C44.6339 64.9137 44.5279 65.4461 44.3221 65.9427C44.1162 66.4393 43.8145 66.8905 43.4341 67.2705C43.0542 67.6508 42.603 67.9526 42.1063 68.1584C41.6097 68.3643 41.0774 68.4703 40.5398 68.4703C40.0022 68.4703 39.4698 68.3643 38.9732 68.1584C38.4766 67.9526 38.0254 67.6508 37.6455 67.2705L37.5227 67.1477C37.0407 66.6762 36.4284 66.3598 35.7648 66.2395C35.1013 66.1192 34.4169 66.2004 33.8 66.4727C33.195 66.732 32.6791 67.1625 32.3156 67.7113C31.9522 68.2601 31.7572 68.9032 31.7545 69.5614V69.9091C31.7545 70.9941 31.3235 72.0346 30.5563 72.8018C29.7892 73.569 28.7486 74 27.6636 74C26.5787 74 25.5381 73.569 24.7709 72.8018C24.0037 72.0346 23.5727 70.9941 23.5727 69.9091V69.725C23.5569 69.048 23.3377 68.3914 22.9438 67.8405C22.5498 67.2897 21.9992 66.8701 21.3636 66.6364C20.7467 66.3641 20.0623 66.2829 19.3988 66.4032C18.7353 66.5235 18.123 66.8398 17.6409 67.3114L17.5182 67.4341C17.1382 67.8145 16.6871 68.1162 16.1904 68.3221C15.6938 68.5279 15.1615 68.6339 14.6239 68.6339C14.0863 68.6339 13.5539 68.5279 13.0573 68.3221C12.5607 68.1162 12.1095 67.8145 11.7295 67.4341C11.3492 67.0542 11.0474 66.603 10.8416 66.1063C10.6357 65.6097 10.5297 65.0774 10.5297 64.5398C10.5297 64.0022 10.6357 63.4698 10.8416 62.9732C11.0474 62.4766 11.3492 62.0254 11.7295 61.6455L11.8523 61.5227C12.3238 61.0407 12.6402 60.4284 12.7605 59.7648C12.8808 59.1013 12.7996 58.4169 12.5273 57.8C12.268 57.195 11.8375 56.6791 11.2887 56.3156C10.7399 55.9522 10.0968 55.7572 9.43864 55.7545H9.09091C8.00593 55.7545 6.96539 55.3235 6.1982 54.5563C5.43101 53.7892 5 52.7486 5 51.6636C5 50.5787 5.43101 49.5381 6.1982 48.7709C6.96539 48.0037 8.00593 47.5727 9.09091 47.5727H9.275C9.95203 47.5569 10.6086 47.3377 11.1595 46.9438C11.7103 46.5498 12.1299 45.9992 12.3636 45.3636C12.6359 44.7467 12.7171 44.0623 12.5968 43.3988C12.4765 42.7353 12.1602 42.123 11.6886 41.6409L11.5659 41.5182C11.1856 41.1382 10.8838 40.6871 10.6779 40.1904C10.4721 39.6938 10.3661 39.1615 10.3661 38.6239C10.3661 38.0863 10.4721 37.5539 10.6779 37.0573C10.8838 36.5607 11.1856 36.1095 11.5659 35.7295C11.9458 35.3492 12.397 35.0474 12.8937 34.8416C13.3903 34.6357 13.9226 34.5297 14.4602 34.5297C14.9978 34.5297 15.5302 34.6357 16.0268 34.8416C16.5234 35.0474 16.9746 35.3492 17.3545 35.7295L17.4773 35.8523C17.9593 36.3238 18.5716 36.6402 19.2352 36.7605C19.8987 36.8808 20.5831 36.7996 21.2 36.5273H21.3636C21.9686 36.268 22.4846 35.8375 22.848 35.2887C23.2114 34.7399 23.4065 34.0968 23.4091 33.4386V33.0909C23.4091 32.0059 23.8401 30.9654 24.6073 30.1982C25.3745 29.431 26.415 29 27.5 29C28.585 29 29.6255 29.431 30.3927 30.1982C31.1599 30.9654 31.5909 32.0059 31.5909 33.0909V33.275C31.5935 33.9332 31.7886 34.5763 32.152 35.125C32.5154 35.6738 33.0314 36.1043 33.6364 36.3636C34.2533 36.6359 34.9377 36.7171 35.6012 36.5968C36.2647 36.4765 36.877 36.1602 37.3591 35.6886L37.4818 35.5659C37.8618 35.1856 38.3129 34.8838 38.8096 34.6779C39.3062 34.4721 39.8385 34.3661 40.3761 34.3661C40.9137 34.3661 41.4461 34.4721 41.9427 34.6779C42.4393 34.8838 42.8905 35.1856 43.2705 35.5659C43.6508 35.9458 43.9526 36.397 44.1584 36.8937C44.3643 37.3903 44.4703 37.9226 44.4703 38.4602C44.4703 38.9978 44.3643 39.5302 44.1584 40.0268C43.9526 40.5234 43.6508 40.9746 43.2705 41.3545L43.1477 41.4773C42.6762 41.9593 42.3598 42.5716 42.2395 43.2352C42.1192 43.8987 42.2004 44.5831 42.4727 45.2V45.3636C42.732 45.9686 43.1625 46.4846 43.7113 46.848C44.2601 47.2114 44.9032 47.4065 45.5614 47.4091H45.9091C46.9941 47.4091 48.0346 47.8401 48.8018 48.6073C49.569 49.3745 50 50.415 50 51.5C50 52.585 49.569 53.6255 48.8018 54.3927C48.0346 55.1599 46.9941 55.5909 45.9091 55.5909H45.725C45.0668 55.5935 44.4237 55.7886 43.875 56.152C43.3262 56.5154 42.8956 57.0314 42.6364 57.6364V57.6364Z" stroke="#F4AC19" stroke-width="2" stroke-linecap="round" stroke-linejoin="round"></path></svg>