<svg xmlns="http://www.w3.org/2000/svg" width="105" height="102" viewBox="0 0 105 102" fill="none"><path d="M88.6239 64.6394C74.0403 82.9186 56.7517 87.8453 49.9304 88.0237C34.1016 88.234 23.0659 66.3021 19.5266 55.3099C16.5637 45.5745 14.4586 24.633 29.7412 18.7507C48.8445 11.3978 73.2086 18.8202 89.4804 32.545C102.498 43.5249 94.3333 58.5162 88.6239 64.6394Z" fill="#FFF3F1"></path><path d="M28.5 28V37" stroke="#F2543F" stroke-width="3" stroke-linecap="round" stroke-linejoin="round"></path><path d="M28.5 64V73" stroke="#F2543F" stroke-width="3" stroke-linecap="round" stroke-linejoin="round"></path><path d="M12.5925 34.5925L18.96 40.96" stroke="#F2543F" stroke-width="3" stroke-linecap="round" stroke-linejoin="round"></path><path d="M38.0398 60.0399L44.4073 66.4074" stroke="#F2543F" stroke-width="3" stroke-linecap="round" stroke-linejoin="round"></path><path d="M6 50.5H15" stroke="#F2543F" stroke-width="3" stroke-linecap="round" stroke-linejoin="round"></path><path d="M42 50.5H51" stroke="#F2543F" stroke-width="3" stroke-linecap="round" stroke-linejoin="round"></path><path d="M12.5925 66.4074L18.96 60.0399" stroke="#F2543F" stroke-width="3" stroke-linecap="round" stroke-linejoin="round"></path><path d="M38.0398 40.96L44.4073 34.5925" stroke="#F2543F" stroke-width="3" stroke-linecap="round" stroke-linejoin="round"></path></svg>